<?xml version="1.0" encoding="utf-8"?>
<!-- Svg Vector Icons : http://www.onlinewebfonts.com/icon -->
<!DOCTYPE svg PUBLIC "-//W3C//DTD SVG 1.1//EN" "http://www.w3.org/Graphics/SVG/1.1/DTD/svg11.dtd">
<svg version="1.1" xmlns="http://www.w3.org/2000/svg" xmlns:xlink="http://www.w3.org/1999/xlink" x="0px" y="0px" viewBox="0 0 1000 1000" enable-background="new 0 0 1000 1000" xml:space="preserve">
<metadata> Svg Vector Icons : http://www.onlinewebfonts.com/icon </metadata>
<g><path fill="#337ab7" d="M683.8,477H545.9V278c0-25.4-20.6-45.9-45.9-45.9s-45.9,20.6-45.9,45.9v245c0,25.4,20.6,45.9,45.9,45.9h183.8c25.4,0,45.9-20.6,45.9-45.9S709.1,477,683.8,477z M307.3,72.4C276,47.8,236.6,33,193.8,33C92.3,33,10,115.2,10,216.7c0,42.9,14.8,82.2,39.4,113.5C99,214.6,191.6,121.9,307.3,72.4z M810.1,33c-42,0-80.5,14.5-111.1,38.6C812.2,120.1,902.9,210.8,951.4,324c24.1-30.6,38.6-69.2,38.6-111.1C990,113.5,909.5,33,810.1,33z M500,78.9C254.8,78.9,55.9,277.7,55.9,523c0,117.8,46.2,224.5,121,304l-61.6,61.6c-8.3,8.3-13.5,19.8-13.5,32.5c0,25.4,20.6,45.9,45.9,45.9c12.7,0,24.2-5.1,32.5-13.5l66.3-66.3C318.5,937.4,405.7,967,500,967c94.5,0,181.9-29.7,253.9-80l66.7,66.7c8.2,8.2,19.6,13.3,32.1,13.3c25.1,0,45.4-20.3,45.4-45.4c0-12.5-5.1-23.9-13.3-32.1l-62.1-62.1c75.1-79.5,121.4-186.4,121.4-304.4C944.1,277.7,745.3,78.9,500,78.9z M500,875.2c-194.5,0-352.2-157.7-352.2-352.2S305.5,170.8,500,170.8c194.5,0,352.2,157.7,352.2,352.2S694.5,875.2,500,875.2z"/></g>
</svg>